HIERARCHY
ROOT Hips
{
	OFFSET 0.000000 0.000000 0.000000 
	CHANNELS 6 Xposition Yposition Zposition Zrotation Yrotation Xrotation
	JOINT LeftUpLeg
	{
		OFFSET 1.363060 -1.794630 0.839290 
		CHANNELS 3 Zrotation Yrotation Xrotation
		JOINT LeftLeg
		{
			OFFSET 2.448110 -6.726130 0.000000 
			CHANNELS 3 Zrotation Yrotation Xrotation
			JOINT LeftFoot
			{
				OFFSET 2.562200 -7.039590 0.000000 
				CHANNELS 3 Zrotation Yrotation Xrotation
				JOINT LeftToeBase
				{
					OFFSET 0.157640 -0.433110 2.322550 
					CHANNELS 3 Zrotation Yrotation Xrotation
					End Site
					{
						OFFSET 0.000000 0.000000 0.000000 
					}
				}
			}
		}
	}
	JOINT RightUpLeg
	{
		OFFSET -1.305520 -1.794630 0.839290 
		CHANNELS 3 Zrotation Yrotation Xrotation
		JOINT RightLeg
		{
			OFFSET -2.542530 -6.985550 0.000000 
			CHANNELS 3 Zrotation Yrotation Xrotation
			JOINT RightFoot
			{
				OFFSET -2.568260 -7.056230 0.000000 
				CHANNELS 3 Zrotation Yrotation Xrotation
				JOINT RightToeBase
				{
					OFFSET -0.164730 -0.452590 2.363150 
					CHANNELS 3 Zrotation Yrotation Xrotation
					End Site
					{
						OFFSET 0.000000 0.000000 0.000000 
					}
				}
			}
		}
	}
	JOINT Spine
	{
		OFFSET 0.028270 2.035590 -0.193380 
		CHANNELS 3 Zrotation Yrotation Xrotation
		JOINT Spine1
		{
			OFFSET 0.056720 2.048850 -0.042750 
			CHANNELS 3 Zrotation Yrotation Xrotation
			JOINT Neck1
			{
				OFFSET -0.054170 1.746240 0.172020 
				CHANNELS 3 Zrotation Yrotation Xrotation
				JOINT Head
				{
					OFFSET 0.104070 1.761360 -0.123970 
					CHANNELS 3 Zrotation Yrotation Xrotation
					End Site
					{
						OFFSET 0.000000 0.000000 0.000000 
					}
				}
			}
			JOINT LeftArm
			{
				OFFSET 3.362410 1.200890 -0.311210 
				CHANNELS 3 Zrotation Yrotation Xrotation
				JOINT LeftForeArm
				{
					OFFSET 4.983000 -0.000000 -0.000000 
					CHANNELS 3 Zrotation Yrotation Xrotation
					JOINT LeftHand
					{
						OFFSET 3.483560 -0.000000 -0.000000 
						CHANNELS 3 Zrotation Yrotation Xrotation
						JOINT LeftHandIndex1
						{
							OFFSET 0.715260 -0.000000 -0.000000 
							CHANNELS 3 Zrotation Yrotation Xrotation
							End Site
							{
								OFFSET 0.000000 0.000000 0.000000 
							}
						}
					}
				}
			}
			JOINT RightArm
			{
				OFFSET -3.136600 1.374050 -0.404650 
				CHANNELS 3 Zrotation Yrotation Xrotation
				JOINT RightForeArm
				{
					OFFSET -5.241900 -0.000000 -0.000000 
					CHANNELS 3 Zrotation Yrotation Xrotation
					JOINT RightHand
					{
						OFFSET -3.444170 -0.000000 -0.000000 
						CHANNELS 3 Zrotation Yrotation Xrotation
						JOINT RightHandIndex1
						{
							OFFSET -0.622530 -0.000000 -0.000000 
							CHANNELS 3 Zrotation Yrotation Xrotation
							End Site
							{
								OFFSET 0.000000 0.000000 0.000000 
							}
						}
					}
				}
			}
		}
	}
}
MOTION
Frames: 12
Frame Time: 0.041667
12.995792 18.309085 -0.047510 -6.543202 -71.484548 43.580050 -20.822998 -2.959809 -47.555583 -1.994887 11.906383 21.107678 -12.848449 34.868039 4.394929 0.070500 1.713000 4.713200 23.655196 0.949480 -33.744239 0.502869 -13.671473 32.132234 10.482716 -27.589268 -6.986079 0.000000 0.010000 -0.027400 -17.992150 1.968840 -39.599719 -10.894521 1.630593 -4.823540 3.830747 -4.102769 37.194907 -1.414500 -0.317700 24.264000 -64.528312 23.694378 31.712266 20.422150 -26.654682 -4.542053 -0.115346 2.988898 0.851437 -7.125000 0.000000 0.000000 90.065654 -21.605781 5.538429 -35.268563 38.199714 -8.179758 -0.518998 -3.714355 7.156921 7.125000 0.000000 0.000000 
12.928911 18.315145 0.012121 -6.213215 -70.831218 43.099616 -20.890976 -3.097384 -47.080883 -2.019624 11.822546 21.077725 -12.683803 34.426157 4.433453 0.062200 1.609700 4.428100 23.909383 0.020876 -34.287396 0.090619 -14.079118 33.261953 10.470095 -27.606692 -5.508576 -0.001900 0.285100 -0.783500 -17.983934 1.934810 -39.543660 -10.929826 1.607342 -4.789501 3.832146 -3.993657 37.203353 -1.401600 -0.271100 24.314300 -64.575203 23.686118 31.995400 20.491581 -26.739464 -4.567942 -0.146896 2.985828 0.592621 -7.125000 0.000000 0.000000 90.215563 -21.716432 5.271986 -35.221176 38.136923 -8.148857 -0.505704 -3.716224 7.200015 7.125000 0.000000 0.000000 
12.862895 18.318500 0.069479 -5.973271 -70.191419 42.712055 -20.962815 -3.202061 -46.641447 -2.037148 11.751587 21.066907 -12.520484 34.005422 4.523076 0.050400 1.448900 3.985000 24.160957 -0.869820 -34.867090 -0.337248 -14.497286 34.466936 10.355010 -27.423729 -4.118003 -0.001600 0.254500 -0.699200 -17.881805 1.907966 -39.534450 -10.832152 1.592368 -4.821137 3.859032 -3.929619 37.121424 -1.363400 -0.251900 24.172600 -65.189431 23.843650 31.320467 20.582048 -26.831735 -4.592133 -0.122876 2.971062 1.287238 -7.125000 0.000000 0.000000 90.296845 -21.945167 4.992535 -35.231774 38.098678 -8.125071 -0.469133 -3.697695 7.240164 7.125000 0.000000 0.000000 
12.797529 18.320773 0.127811 -5.780858 -69.566510 42.375092 -21.011454 -3.336351 -46.205083 -2.052797 11.686235 21.060577 -12.380046 33.633641 4.565411 0.041800 1.319500 3.628400 24.368129 -1.625718 -35.439563 -0.810593 -14.937508 35.716629 10.316450 -27.480120 -2.580478 -0.004200 0.418600 -1.150100 -17.729288 1.907475 -39.534041 -10.664593 1.603111 -4.817070 3.757173 -3.945500 37.109362 -1.437600 -0.243300 24.158800 -65.086051 23.788900 32.098255 20.695858 -26.969404 -4.633109 -0.165143 2.965479 0.745560 -7.125000 0.000000 0.000000 90.467399 -22.010244 4.501679 -35.127579 37.978959 -8.052171 -0.441720 -3.675502 7.562483 7.125000 0.000000 0.000000 
12.732271 18.325210 0.182680 -5.692590 -68.905973 42.134860 -21.021685 -3.446963 -45.765519 -2.069052 11.617571 21.056175 -12.228050 33.216522 4.589683 0.035800 1.221400 3.358300 24.587621 -2.275476 -36.018059 -1.311289 -15.394402 37.023237 10.275831 -27.591213 -1.062806 -0.005000 0.456900 -1.255400 -17.529351 1.889646 -39.576607 -10.544327 1.588878 -4.853310 3.736818 -3.889996 37.114953 -1.437900 -0.219500 24.191600 -65.148341 23.826785 32.610522 20.806630 -27.092362 -4.665208 -0.198114 2.948618 0.404274 -7.125000 0.000000 0.000000 90.564483 -22.196797 4.186946 -35.081531 37.888879 -7.995414 -0.416868 -3.639055 7.699742 7.125000 0.000000 0.000000 
12.668960 18.329972 0.239172 -5.585167 -68.216880 41.893252 -20.996662 -3.650872 -45.309812 -2.088317 11.547879 21.039038 -12.102715 32.856582 4.534868 0.032100 1.156000 3.178100 24.761493 -2.882527 -36.631261 -1.844569 -15.861447 38.360483 10.210634 -27.714164 0.610501 -0.004500 0.432700 -1.189000 -17.343790 1.859676 -39.624452 -10.459846 1.561230 -4.915558 3.831548 -3.816796 37.015627 -1.333800 -0.217300 24.007300 -65.299387 23.944773 32.835506 20.999535 -27.307928 -4.732185 -0.209975 2.936728 0.372794 -7.125000 0.000000 0.000000 90.653079 -22.400876 3.857006 -35.004167 37.785480 -7.944179 -0.391348 -3.637475 7.863955 7.125000 0.000000 0.000000 
12.607598 18.332569 0.293175 -5.473946 -67.530746 41.673407 -20.978509 -3.853639 -44.886290 -2.107076 11.480153 21.010187 -11.971114 32.511207 4.555334 0.027000 1.060000 2.913800 24.860030 -3.313078 -37.240322 -2.378202 -16.329934 39.732912 10.081770 -27.709317 2.100834 0.000000 -0.043600 0.119700 -17.136200 1.827486 -39.685184 -10.327125 1.536980 -4.970783 3.706780 -3.774712 37.021114 -1.421400 -0.187700 24.034400 -65.332756 23.975748 33.345374 21.157317 -27.485265 -4.784202 -0.243553 2.918831 0.188217 -7.125000 0.000000 0.000000 90.736415 -22.551058 3.534789 -34.891700 37.655973 -7.885323 -0.391252 -3.638511 7.963906 7.125000 0.000000 0.000000 
12.546669 18.334734 0.348693 -5.290463 -66.846343 41.371267 -21.012831 -4.025576 -44.464737 -2.123319 11.410176 20.978259 -11.832941 32.176371 4.657826 0.017300 0.849300 2.334300 24.886272 -3.715700 -37.848358 -2.934174 -16.794284 41.113574 9.932764 -27.710378 3.676138 -0.019600 -0.903900 2.484500 -17.002658 1.783891 -39.697827 -10.230269 1.510247 -4.976102 3.618615 -3.694461 37.018377 -1.473800 -0.152600 24.042100 -65.270156 23.942000 34.066003 21.314779 -27.660968 -4.833812 -0.278337 2.896560 -0.116796 -7.125000 0.000000 0.000000 90.746265 -22.749673 3.390167 -34.844800 37.570865 -7.841195 -0.353009 -3.632550 7.861094 7.125000 0.000000 0.000000 
12.485740 18.336032 0.403778 -5.060211 -66.167532 41.035492 -21.076164 -4.206317 -44.059681 -2.147604 11.339646 20.960095 -11.670250 31.753271 4.651207 0.016900 0.839900 2.308400 24.853134 -4.074125 -38.452996 -3.538337 -17.256081 42.444622 9.854229 -28.050264 5.642708 -0.050700 -1.452900 3.996000 -16.832279 1.742033 -39.720554 -10.069534 1.486741 -4.990720 3.614255 -3.650312 36.964314 -1.455200 -0.143700 23.962400 -65.423250 24.038929 34.391971 21.547607 -27.914136 -4.912517 -0.293530 2.873873 -0.016818 -7.125000 0.000000 0.000000 90.787858 -22.925711 3.101630 -34.724245 37.438395 -7.791926 -0.357784 -3.655037 7.800488 7.125000 0.000000 0.000000 
12.425352 18.335600 0.456050 -4.849402 -65.451645 40.702177 -21.126307 -4.394469 -43.642685 -2.167282 11.271611 20.935704 -11.510910 31.366154 4.730739 0.011400 0.690800 1.898500 24.779812 -4.331309 -39.012069 -4.139714 -17.700475 43.759376 9.761582 -28.403820 7.447689 -0.128300 -2.309000 6.360500 -16.542881 1.685891 -39.821789 -9.872668 1.444830 -5.097360 3.546608 -3.630946 37.005254 -1.482300 -0.146000 24.007600 -65.127774 23.963896 35.717284 21.701350 -28.093264 -4.965539 -0.344562 2.856150 -0.725651 -7.125000 0.000000 0.000000 90.854853 -23.096880 2.750092 -34.509720 37.215803 -7.686262 -0.362019 -3.654908 7.917462 7.125000 0.000000 0.000000 
12.364530 18.339171 0.501828 -4.716841 -64.580863 40.426651 -20.996663 -4.774304 -43.118011 -2.187404 11.201334 20.892128 -11.376905 31.022851 4.733948 0.010800 0.672300 1.847500 24.775657 -4.560612 -39.546598 -4.737876 -18.125527 45.046382 9.674246 -28.836928 9.149248 -0.304600 -3.548700 9.810300 -16.267491 1.603393 -39.850178 -9.671894 1.385956 -5.136744 3.488203 -3.593709 36.934889 -1.501200 -0.141000 23.889400 -65.237953 24.000255 36.029298 21.912202 -28.328810 -5.045604 -0.264060 2.860712 -0.659678 -7.125000 0.000000 0.000000 90.823158 -23.248028 2.503531 -34.305046 37.021529 -7.623324 -0.388780 -3.708925 7.825583 7.125000 0.000000 0.000000 
12.305982 18.338305 0.552801 -4.521066 -63.786744 40.112116 -21.040248 -4.953221 -42.696475 -2.209350 11.125940 20.853303 -11.190015 30.587068 4.884854 0.006500 0.519800 1.428300 24.622494 -4.577961 -40.024829 -5.325757 -18.541985 46.306138 9.497427 -29.121797 10.898723 -0.539000 -4.703900 13.065900 -16.057095 1.550008 -39.890754 -9.521768 1.351349 -5.165091 3.377466 -3.504752 36.958145 -1.566200 -0.102800 23.942000 -65.078329 23.764855 36.827946 22.053575 -28.489435 -5.091898 -0.319584 2.834413 -0.926319 -7.125000 0.000000 0.000000 90.812965 -23.439217 2.295040 -34.128054 36.825981 -7.541358 -0.387062 -3.724164 7.740984 7.125000 0.000000 0.000000 
